<svg width="24" height="24" viewBox="0 0 24 24" fill="none" xmlns="http://www.w3.org/2000/svg">
  <path d="M11.25 1.5V12H12.75V1.5H11.25Z" fill="#909090"
    style="fill:#909090;fill:color(display-p3 0.4353 0.4627 0.5255);fill-opacity:1;" />
  <path
    d="M2.25 12.7501C2.25 9.00777 4.35842 5.75788 7.45219 4.12352L8.20297 5.42391C5.5573 6.7979 3.75 9.56295 3.75 12.7501C3.75 17.3065 7.44365 21.0001 12 21.0001C16.5563 21.0001 20.25 17.3065 20.25 12.7501C20.25 9.56283 18.4426 6.79768 15.7967 5.42375L16.5475 4.12335C19.6414 5.75766 21.75 9.00765 21.75 12.7501C21.75 18.1349 17.3848 22.5001 12 22.5001C6.61522 22.5001 2.25 18.1349 2.25 12.7501Z"
    fill="#909090" style="fill:#909090;fill:color(display-p3 0.4353 0.4627 0.5255);fill-opacity:1;" />
</svg>
