<svg xmlns="http://www.w3.org/2000/svg" fill="none" viewBox="0 0 24 24"><path fill="#3838b9" d="M11.647 1.43a1.75 1.75 0 0 1 .705 0c.268.055.508.19.733.315l.056.031 7.4 4.111.06.033c.238.132.492.272.686.483.169.183.297.4.375.636.09.272.089.563.088.834V16.127c0 .272.001.562-.088.834a1.75 1.75 0 0 1-.375.637c-.194.21-.448.35-.686.482l-.06.033-7.4 4.111-.056.031c-.225.126-.465.26-.733.315a1.748 1.748 0 0 1-.705 0c-.267-.055-.507-.189-.732-.315l-.056-.031-7.4-4.111-.06-.033c-.238-.131-.492-.272-.686-.482a1.75 1.75 0 0 1-.375-.637c-.09-.272-.089-.562-.088-.834V7.873c0-.271-.001-.562.088-.834a1.75 1.75 0 0 1 .375-.636c.194-.21.448-.351.686-.483l.06-.033 7.4-4.11.056-.032c.225-.126.465-.26.732-.315Zm.24 1.496c-.066.032-.15.079-.3.161L4.544 7 12 11.142 19.456 7l-7.043-3.913a6.68 6.68 0 0 0-.3-.16.493.493 0 0 0-.063-.028m8.2 5.376-7.5 4.166v8.284l7.063-3.923c.157-.088.247-.138.312-.18a.505.505 0 0 0 .06-.041.25.25 0 0 0 .052-.09.49.49 0 0 0 .008-.073c.005-.077.005-.18.005-.36V8.276Zm-9 4.166-7.5-4.166v7.784c0 .18 0 .282.005.36a.497.497 0 0 0 .008.072.25.25 0 0 0 .053.09c.004.003.02.016.06.042.064.041.154.091.311.179l7.063 3.923v-8.284ZM3.815 16.58Zm-.052-9.072v.002Zm8.124-4.582a.486.486 0 0 1 .063-.027Zm.064-.027h-.001Z"/></svg>
