<svg width="22" height="22" viewBox="0 0 22 22" fill="none" xmlns="http://www.w3.org/2000/svg">
  <g id="user-add">
    <g id="Union">
      <path
        d="M11 11.6875C13.6579 11.6875 15.8125 9.53287 15.8125 6.875C15.8125 4.21713 13.6579 2.0625 11 2.0625C8.34213 2.0625 6.1875 4.21713 6.1875 6.875C6.1875 9.53287 8.34213 11.6875 11 11.6875ZM11 10.3125C9.10152 10.3125 7.5625 8.77348 7.5625 6.875C7.5625 4.97652 9.10152 3.4375 11 3.4375C12.8985 3.4375 14.4375 4.97652 14.4375 6.875C14.4375 8.77348 12.8985 10.3125 11 10.3125Z"
        fill="#3838b9" style="fill:#3838b9;fill:color(display-p3 0.2118 0.4314 0.9569);fill-opacity:1;" />
      <path
        d="M15.8125 15.1063C14.2813 14.6709 12.6688 14.4375 11 14.4375C8.29593 14.4375 5.73972 15.0504 3.4375 16.1423V18.5625H13.0625V19.9375H2.75C2.37031 19.9375 2.0625 19.6297 2.0625 19.25V16.1214C2.0625 15.6127 2.34165 15.1418 2.80069 14.9226C5.29293 13.7322 8.06645 13.0625 11 13.0625C12.663 13.0625 14.2745 13.2777 15.8125 13.681V15.1063Z"
        fill="#3838b9" style="fill:#3838b9;fill:color(display-p3 0.2118 0.4314 0.9569);fill-opacity:1;" />
      <path d="M17.5312 18.9062V22H18.9062V18.9062H22V17.5312H18.9062V14.4375H17.5312V17.5312H14.4375V18.9062H17.5312Z"
        fill="#3838b9" style="fill:#3838b9;fill:color(display-p3 0.2118 0.4314 0.9569);fill-opacity:1;" />
    </g>
  </g>
</svg>
