<svg width="22" height="22" viewBox="0 0 22 22" fill="none" xmlns="http://www.w3.org/2000/svg">
<g id="usergroup-add">
<g id="Union">
<path d="M18.1979 17.5312V19.9375H19.5729V17.5312H21.9792V16.1562H19.5729V13.75H18.1979V16.1562H15.7917V17.5312H18.1979Z" fill="#3838b9" style="fill:#3838b9;fill:color(display-p3 0.2118 0.4314 0.9569);fill-opacity:1;"/>
<path d="M10.2598 1.85137C9.65568 1.54663 8.97291 1.375 8.25004 1.375C5.78202 1.375 3.78129 3.37573 3.78129 5.84375C3.78129 8.29052 5.7477 10.278 8.18638 10.3121V8.93686C6.50713 8.90296 5.15629 7.53111 5.15629 5.84375C5.15629 4.13512 6.54141 2.75 8.25004 2.75C8.65384 2.75 9.03957 2.82736 9.39322 2.96807L10.2598 1.85137Z" fill="#3838b9" style="fill:#3838b9;fill:color(display-p3 0.2118 0.4314 0.9569);fill-opacity:1;"/>
<path d="M8.18638 11.3038C5.52643 11.3132 3.01011 11.9133 0.743778 12.9744C0.281238 13.191 0 13.6636 0 14.1744V17.1875C0 17.5672 0.307804 17.875 0.687499 17.875H3.9285V16.5H1.375V14.1972C3.45223 13.2327 5.75328 12.6881 8.18638 12.6788V11.3038Z" fill="#3838b9" style="fill:#3838b9;fill:color(display-p3 0.2118 0.4314 0.9569);fill-opacity:1;"/>
<path d="M18.2186 6.96236C18.2186 9.43039 16.2179 11.4311 13.7499 11.4311C11.2819 11.4311 9.28114 9.43039 9.28114 6.96236C9.28114 4.49434 11.2819 2.49361 13.7499 2.49361C16.2179 2.49361 18.2186 4.49434 18.2186 6.96236ZM16.8436 6.96236C16.8436 5.25373 15.4585 3.86861 13.7499 3.86861C12.0413 3.86861 10.6561 5.25373 10.6561 6.96236C10.6561 8.67099 12.0413 10.0561 13.7499 10.0561C15.4585 10.0561 16.8436 8.67099 16.8436 6.96236Z" fill="#3838b9" style="fill:#3838b9;fill:color(display-p3 0.2118 0.4314 0.9569);fill-opacity:1;"/>
<path d="M16.5 14.5733C15.6063 14.4208 14.6878 14.3413 13.75 14.3413C11.2933 14.3413 8.97027 14.8869 6.87495 15.8598V18.5625H16.5V19.9375H6.18745C5.80775 19.9375 5.49995 19.6297 5.49995 19.25V15.837C5.49995 15.3263 5.78119 14.8536 6.24373 14.637C8.52812 13.5674 11.0665 12.9663 13.75 12.9663C14.6858 12.9663 15.604 13.0394 16.5 13.18V14.5733Z" fill="#3838b9" style="fill:#3838b9;fill:color(display-p3 0.2118 0.4314 0.9569);fill-opacity:1;"/>
</g>
</g>
</svg>
