<svg xmlns="http://www.w3.org/2000/svg" fill="none" viewBox="0 0 24 24">
  <path fill="#3838b9"
    d="M7.643 4.611a1.305 1.305 0 0 0-.238.752v3.822c0 .465.248.896.65 1.13l3.29 1.906a1.305 1.305 0 0 0 1.31 0l3.29-1.907c.402-.233.65-.664.65-1.13V5.364c0-.466-.248-.896-.65-1.13l-3.29-1.906a1.306 1.306 0 0 0-1.31 0l-3.29 1.906a1.304 1.304 0 0 0-.412.378ZM2.65 19.767l3.29 1.906c.405.235.904.235 1.309 0l3.29-1.906c.403-.234.65-.664.65-1.13v-3.822c0-.465-.247-.896-.65-1.13L7.25 11.78a1.306 1.306 0 0 0-1.31 0l-3.29 1.907c-.402.233-.65.664-.65 1.13v3.821c0 .466.248.896.65 1.13Zm9.349-8.9L8.905 9.072V5.475L12 3.681l3.095 1.794v3.598L12 10.866Zm-2.31 7.658-3.095 1.794L3.5 18.525v-3.598l3.095-1.793 3.096 1.793v3.598Zm7.287-.94h-3.25v-1.5h3.25v-3.25h1.5v3.25h3.25v1.5h-3.25v3.25h-1.5v-3.25Z" />
</svg>
