<svg width="22" height="22" viewBox="0 0 22 22" fill="none" xmlns="http://www.w3.org/2000/svg">
<g id="usergroup">
<g id="Union">
<path d="M8.25004 1.375C8.97291 1.375 9.65568 1.54663 10.2598 1.85137L9.39322 2.96807C9.03957 2.82736 8.65384 2.75 8.25004 2.75C6.54141 2.75 5.15629 4.13512 5.15629 5.84375C5.15629 7.53111 6.50713 8.90296 8.18638 8.93686V10.3121C5.7477 10.278 3.78129 8.29052 3.78129 5.84375C3.78129 3.37573 5.78202 1.375 8.25004 1.375Z" fill="#3838b9" style="fill:#3838b9;fill:color(display-p3 0.2118 0.4314 0.9569);fill-opacity:1;"/>
<path d="M0.743778 12.9744C3.01011 11.9133 5.52643 11.3132 8.18638 11.3038V12.6788C5.75328 12.6881 3.45223 13.2327 1.375 14.1972V16.5H3.9285V17.875H0.687499C0.307804 17.875 0 17.5672 0 17.1875V14.1744C0 13.6636 0.281238 13.191 0.743778 12.9744Z" fill="#3838b9" style="fill:#3838b9;fill:color(display-p3 0.2118 0.4314 0.9569);fill-opacity:1;"/>
<path d="M13.7499 11.4311C11.2819 11.4311 9.28114 9.43039 9.28114 6.96236C9.28114 4.49434 11.2819 2.49361 13.7499 2.49361C16.2179 2.49361 18.2186 4.49434 18.2186 6.96236C18.2186 9.43039 16.2179 11.4311 13.7499 11.4311ZM13.7499 10.0561C15.4585 10.0561 16.8436 8.67099 16.8436 6.96236C16.8436 5.25373 15.4585 3.86861 13.7499 3.86861C12.0413 3.86861 10.6561 5.25373 10.6561 6.96236C10.6561 8.67099 12.0413 10.0561 13.7499 10.0561Z" fill="#3838b9" style="fill:#3838b9;fill:color(display-p3 0.2118 0.4314 0.9569);fill-opacity:1;"/>
<path d="M22 15.837C22 15.3263 21.7187 14.8536 21.2562 14.637C18.9718 13.5674 16.4334 12.9663 13.75 12.9663C11.0665 12.9663 8.52812 13.5674 6.24373 14.637C5.78119 14.8536 5.49995 15.3263 5.49995 15.837V19.25C5.49995 19.6297 5.80775 19.9375 6.18745 19.9375H21.3125C21.6922 19.9375 22 19.6297 22 19.25V15.837ZM20.625 15.8598V18.5625H6.87495V15.8598C8.97027 14.8869 11.2933 14.3413 13.75 14.3413C16.2066 14.3413 18.5296 14.8869 20.625 15.8598Z" fill="#3838b9" style="fill:#3838b9;fill:color(display-p3 0.2118 0.4314 0.9569);fill-opacity:1;"/>
</g>
</g>
</svg>
