<svg width="22" height="22" viewBox="0 0 22 22" fill="none" xmlns="http://www.w3.org/2000/svg">
<g id="icon/&#229;&#141;&#149;&#228;&#189;&#141;">
<path id="Vector (Stroke)" fill-rule="evenodd" clip-rule="evenodd" d="M20.1667 19.9375H1.83337V18.5625H20.1667V19.9375Z" fill="#3838b9" style="fill:#3838b9;fill:color(display-p3 0.2118 0.4314 0.9569);fill-opacity:1;"/>
<path id="Vector (Stroke)_2" fill-rule="evenodd" clip-rule="evenodd" d="M4.58329 10.7708C4.45673 10.7708 4.35413 10.8734 4.35413 11V18.3333C4.35413 18.4599 4.45673 18.5625 4.58329 18.5625H8.24996C8.37652 18.5625 8.47913 18.4599 8.47913 18.3333V11C8.47913 10.8734 8.37652 10.7708 8.24996 10.7708H4.58329ZM2.97913 11C2.97913 10.114 3.69734 9.39581 4.58329 9.39581H8.24996C9.13592 9.39581 9.85413 10.114 9.85413 11V18.3333C9.85413 19.2193 9.13592 19.9375 8.24996 19.9375H4.58329C3.69734 19.9375 2.97913 19.2193 2.97913 18.3333V11Z" fill="#3838b9" style="fill:#3838b9;fill:color(display-p3 0.2118 0.4314 0.9569);fill-opacity:1;"/>
<path id="Vector (Stroke)_3" fill-rule="evenodd" clip-rule="evenodd" d="M10.0833 2.52081C9.95673 2.52081 9.85413 2.62341 9.85413 2.74998V18.3333C9.85413 18.4599 9.95673 18.5625 10.0833 18.5625H17.4166C17.5432 18.5625 17.6458 18.4599 17.6458 18.3333V2.74998C17.6458 2.62341 17.5432 2.52081 17.4166 2.52081H10.0833ZM8.47913 2.74998C8.47913 1.86402 9.19734 1.14581 10.0833 1.14581H17.4166C18.3026 1.14581 19.0208 1.86402 19.0208 2.74998V18.3333C19.0208 19.2193 18.3026 19.9375 17.4166 19.9375H10.0833C9.19734 19.9375 8.47913 19.2193 8.47913 18.3333V2.74998Z" fill="#3838b9" style="fill:#3838b9;fill:color(display-p3 0.2118 0.4314 0.9569);fill-opacity:1;"/>
<path id="Vector (Stroke)_4" fill-rule="evenodd" clip-rule="evenodd" d="M16.5 15.8125H11V14.4375H16.5V15.8125Z" fill="#3838b9" style="fill:#3838b9;fill:color(display-p3 0.2118 0.4314 0.9569);fill-opacity:1;"/>
<path id="Vector (Stroke)_5" fill-rule="evenodd" clip-rule="evenodd" d="M8.25 15.8125H4.8125V14.4375H8.25V15.8125Z" fill="#3838b9" style="fill:#3838b9;fill:color(display-p3 0.2118 0.4314 0.9569);fill-opacity:1;"/>
<path id="Vector (Stroke)_6" fill-rule="evenodd" clip-rule="evenodd" d="M16.5 11.6875H11V10.3125H16.5V11.6875Z" fill="#3838b9" style="fill:#3838b9;fill:color(display-p3 0.2118 0.4314 0.9569);fill-opacity:1;"/>
<path id="Vector (Stroke)_7" fill-rule="evenodd" clip-rule="evenodd" d="M16.5 7.5625H11V6.1875H16.5V7.5625Z" fill="#3838b9" style="fill:#3838b9;fill:color(display-p3 0.2118 0.4314 0.9569);fill-opacity:1;"/>
</g>
</svg>
