<svg xmlns="http://www.w3.org/2000/svg" fill="none" viewBox="0 0 24 24"><path fill="#3838b9" d="M18.555 18.553c-.123.122-.37.267-.893.28-.533.013-1.254-.12-2.132-.457-.697-.268-1.45-.65-2.231-1.137a23.696 23.696 0 0 0 2.086-1.856 23.699 23.699 0 0 0 1.856-2.086c.488.78.869 1.534 1.137 2.23.338.88.47 1.6.457 2.133-.013.523-.158.77-.28.893Zm-1.314-7.854a23.69 23.69 0 0 0-1.857-2.086A23.705 23.705 0 0 0 13.3 6.757c.78-.488 1.534-.869 2.231-1.137.878-.338 1.6-.47 2.132-.457.523.013.77.158.893.28.122.123.267.37.28.893.013.533-.119 1.254-.457 2.132-.268.697-.65 1.45-1.137 2.231Zm.946 1.3c2.137-3.192 2.808-6.237 1.428-7.616-1.38-1.38-4.424-.71-7.615 1.428C8.81 3.673 5.764 3.003 4.384 4.382c-1.38 1.38-.709 4.425 1.429 7.616-2.137 3.191-2.808 6.236-1.428 7.615 1.38 1.38 4.424.71 7.615-1.428 3.191 2.137 6.236 2.808 7.615 1.428 1.38-1.38.71-4.424-1.428-7.615ZM12 16.345a21.919 21.919 0 0 1-2.324-2.024 21.9 21.9 0 0 1-2.024-2.324 21.903 21.903 0 0 1 2.024-2.324A21.906 21.906 0 0 1 12 7.65a21.9 21.9 0 0 1 2.324 2.024c.766.766 1.443 1.55 2.024 2.324a21.904 21.904 0 0 1-2.024 2.324A21.902 21.902 0 0 1 12 16.346Zm-5.241-3.05a23.692 23.692 0 0 0 1.856 2.087 23.7 23.7 0 0 0 2.086 1.857c-.78.487-1.534.868-2.231 1.136-.878.338-1.6.47-2.132.457-.523-.013-.77-.158-.893-.28-.122-.122-.267-.37-.28-.893-.013-.533.119-1.253.457-2.132.268-.697.65-1.45 1.137-2.231Zm0-2.597a13.267 13.267 0 0 1-1.137-2.231c-.338-.879-.47-1.6-.457-2.133.013-.522.158-.77.28-.892.122-.122.37-.267.892-.28.534-.013 1.254.119 2.133.457.697.268 1.45.65 2.231 1.137a23.69 23.69 0 0 0-2.086 1.857 23.686 23.686 0 0 0-1.856 2.085Z"/></svg>
