<svg xmlns="http://www.w3.org/2000/svg" fill="none" viewBox="0 0 24 24"><path fill="#3838b9" d="M4.5 4.5h5v5h-5v-5ZM3.5 3a.5.5 0 0 0-.5.5v7a.5.5 0 0 0 .5.5h7a.5.5 0 0 0 .5-.5v-7a.5.5 0 0 0-.5-.5h-7Zm1.026 11.5h5v5h-5v-5Zm-1-1.5a.5.5 0 0 0-.5.5v7a.5.5 0 0 0 .5.5h7a.5.5 0 0 0 .5-.5v-7a.5.5 0 0 0-.5-.5h-7Zm11-3.5h5v-5h-5v5Zm-1.5-6a.5.5 0 0 1 .5-.5h7a.5.5 0 0 1 .5.5v7a.5.5 0 0 1-.5.5h-7a.5.5 0 0 1-.5-.5v-7Zm4 16a2.5 2.5 0 1 1 0-5 2.5 2.5 0 0 1 0 5Zm3.309-.252a4 4 0 1 0-1.06 1.06l1.22 1.222 1.061-1.06-1.221-1.222Z"/></svg>
