<svg xmlns="http://www.w3.org/2000/svg" fill="none" viewBox="0 0 24 24"><path fill="#3838b9" d="M12 4.067c4.345 0 7.88 3.543 7.88 7.931h1.442c0-5.177-4.173-9.373-9.322-9.373-3.354 0-6.295 1.782-7.937 4.455V3.964H2.625v4.66c0 .414.336.75.75.75h4.63V7.926h-2.77C6.615 5.613 9.13 4.067 12 4.067ZM2.678 11.998H4.12c0 4.388 3.536 7.931 7.88 7.931a7.869 7.869 0 0 0 6.765-3.86h-2.77v-1.446h4.63a.75.75 0 0 1 .75.75v4.66h-1.438v-3.116C18.295 19.59 15.354 21.37 12 21.37c-5.148 0-9.322-4.197-9.322-9.373Z"/></svg>
