<svg xmlns="http://www.w3.org/2000/svg" fill="none" viewBox="0 0 24 24"><path fill="#3838b9" d="M10.875 12.375a5.25 5.25 0 1 0 0-10.5 5.25 5.25 0 0 0 0 10.5Zm0-1.5a3.75 3.75 0 1 1 0-7.5 3.75 3.75 0 0 1 0 7.5ZM14.625 15.743a19.21 19.21 0 0 0-3.75-.368c-2.95 0-5.738.669-8.25 1.86v2.64h12v1.5H1.875a.75.75 0 0 1-.75-.75v-3.413c0-.555.305-1.069.805-1.308a20.678 20.678 0 0 1 8.945-2.029c1.28 0 2.534.117 3.75.34v1.528ZM15.98 21.064l2.387-2.386-2.387-2.387 1.061-1.06 2.387 2.386 2.386-2.386 1.061 1.06-2.387 2.387 2.387 2.386-1.06 1.061-2.387-2.386-2.387 2.386-1.06-1.06Z"/></svg>
