<svg xmlns="http://www.w3.org/2000/svg" fill="none" viewBox="0 0 24 24"><path fill="#3838b9" d="M7.643 4.631a1.305 1.305 0 0 0-.238.752v3.822c0 .465.248.896.65 1.13l3.29 1.906a1.304 1.304 0 0 0 1.31 0l3.29-1.907c.402-.233.65-.664.65-1.13V5.384c0-.466-.248-.896-.65-1.13l-3.29-1.906a1.306 1.306 0 0 0-1.31 0l-3.29 1.906a1.304 1.304 0 0 0-.412.378ZM2.65 19.787l3.29 1.906c.405.235.904.235 1.309 0l3.29-1.906c.403-.234.65-.664.65-1.13v-3.822c0-.465-.247-.896-.65-1.13L7.25 11.8a1.306 1.306 0 0 0-1.31 0l-3.29 1.907c-.402.233-.65.664-.65 1.13v3.821c0 .466.248.896.65 1.13Zm9.349-8.9L8.905 9.092V5.495L12 3.701l3.095 1.794v3.598L12 10.886Zm5.403 9.452-3.12-1.797v-3.593l3.12-1.797 3.097 1.795v3.597l-3.097 1.795ZM9.69 18.545l-3.096 1.794L3.5 18.545v-3.598l3.095-1.793 3.096 1.793v3.598Zm-3.193 1.85ZM3.403 18.49l-.098.168.098-.168Zm3.095-5.392Zm10.253 8.598c.404.233.903.233 1.306-.001l3.292-1.908c.403-.234.651-.664.651-1.13v-3.821c0-.466-.248-.896-.65-1.13l-3.293-1.908a1.305 1.305 0 0 0-1.306-.001l-3.314 1.91a1.305 1.305 0 0 0-.654 1.13v3.818c0 .467.25.898.654 1.131l3.314 1.91Z"/></svg>
