<svg xmlns="http://www.w3.org/2000/svg" fill="none" viewBox="0 0 24 24"><path fill="#3838b9" d="M10 3.75a.75.75 0 0 1 .75-.75h4.5a.75.75 0 0 1 .75.75v4.5a.75.75 0 0 1-.75.75h-1.5v3h4.5a1.5 1.5 0 0 1 1.5 1.5V15h1.5a.75.75 0 0 1 .75.75v4.5a.75.75 0 0 1-.75.75h-4.5a.75.75 0 0 1-.75-.75v-4.5a.75.75 0 0 1 .75-.75h1.5v-1.5H7.75V15h1.5a.75.75 0 0 1 .75.75v4.5a.75.75 0 0 1-.75.75h-4.5a.75.75 0 0 1-.75-.75v-4.5a.75.75 0 0 1 .75-.75h1.5v-1.5a1.5 1.5 0 0 1 1.5-1.5h4.5V9h-1.5a.75.75 0 0 1-.75-.75v-4.5Zm1.5 3.75h3v-3h-3v3Zm-6 9v3h3v-3h-3Zm12 0v3h3v-3h-3Z"/></svg>
