<svg width="24" height="25" viewBox="0 0 24 25" fill="none" xmlns="http://www.w3.org/2000/svg">
  <g clip-path="url(#clip0_1996_28741)">
    <rect y="0.753906" width="24" height="24" rx="4" fill="#FF9A5C"
      style="fill:#FF9A5C;fill:color(display-p3 1.0000 0.6021 0.3625);fill-opacity:1;" />
    <rect y="0.753906" width="24" height="24" rx="4" fill="#FFCE39"
      style="fill:#FFCE39;fill:color(display-p3 1.0000 0.8078 0.2235);fill-opacity:1;" />
    <path
      d="M14.4327 6.66602C15.4734 6.66602 16.3171 7.51022 16.3171 8.55158C16.3171 9.05227 16.1221 9.5074 15.8039 9.84502L16.3987 10.8748C16.516 10.8524 16.6352 10.8411 16.7546 10.8412C17.7954 10.8412 18.6391 11.6854 18.6391 12.7267C18.6391 13.7681 17.7954 14.6123 16.7546 14.6123C16.6952 14.6123 16.6365 14.6096 16.5785 14.6042L15.9312 15.7248C16.1733 16.042 16.3171 16.4383 16.3171 16.8683C16.3171 17.9096 15.4734 18.7538 14.4327 18.7538C13.6803 18.7538 13.031 18.3127 12.7288 17.6749H11.2234C10.9212 18.3127 10.2719 18.7538 9.51956 18.7538C8.4788 18.7538 7.6351 17.9096 7.6351 16.8683C7.6351 16.3935 7.81046 15.9597 8.09992 15.6282L7.4678 14.5339C7.29692 14.5849 7.11586 14.6123 6.92841 14.6123C5.88765 14.6123 5.04395 13.7681 5.04395 12.7267C5.04395 11.6854 5.88765 10.8412 6.92841 10.8412C7.17626 10.8412 7.41292 10.889 7.62968 10.9761L8.23387 9.93015C7.86544 9.58598 7.6351 9.09571 7.6351 8.55158C7.6351 7.51022 8.4788 6.66602 9.51956 6.66602C10.4103 6.66602 11.1566 7.28431 11.3534 8.11534H12.5989C12.7956 7.28431 13.542 6.66602 14.4327 6.66602ZM11.2981 14.5294L11.3004 14.5304C11.3139 14.536 11.3274 14.5416 11.341 14.5469L10.7348 15.4271C11.1279 15.7593 11.3832 16.2496 11.4028 16.7999H12.5494C12.5679 16.2789 12.7977 15.8118 13.1557 15.4816L12.6147 14.5931L12.6196 14.5915C12.4378 14.6488 12.2442 14.6797 12.0434 14.6797C11.7791 14.6797 11.5273 14.6262 11.2981 14.5294ZM13.3362 14.1783L13.3369 14.1777C13.3474 14.168 13.3579 14.1582 13.3683 14.1483L13.9195 15.0534C14.0865 15.0064 14.2592 14.9825 14.4326 14.9827C14.7229 14.9827 14.9978 15.0483 15.2433 15.1656L15.7357 14.3132C15.343 14.0602 15.0504 13.6653 14.9302 13.2008L13.9096 13.2058L13.9123 13.1943C13.8233 13.5796 13.6184 13.9205 13.3362 14.1783ZM10.1813 13.2228L10.1815 13.2236L8.74488 13.2305C8.65233 13.5653 8.46984 13.8627 8.22507 14.095L8.81629 15.1184C9.03359 15.0309 9.27095 14.9827 9.51955 14.9827C9.66589 14.9827 9.80831 14.9994 9.94505 15.031L10.6216 14.0487L10.6248 14.0522C10.4139 13.8205 10.2589 13.5368 10.1813 13.2228ZM12.0434 11.5146C11.3558 11.5146 10.7983 12.0724 10.7983 12.7604C10.7983 13.4485 11.3558 14.0062 12.0434 14.0062C12.7311 14.0062 13.2885 13.4485 13.2885 12.7604C13.2885 12.0724 12.7311 11.5146 12.0434 11.5146ZM8.99468 10.363L8.34656 11.485C8.5592 11.7279 8.71052 12.026 8.77625 12.3549L10.1696 12.3482L10.1682 12.3549C10.2534 11.9585 10.461 11.6075 10.7495 11.3436C10.7251 11.366 10.7012 11.389 10.678 11.4125L10.0398 10.3644C9.87453 10.4118 9.7 10.4371 9.51956 10.4371C9.33741 10.4371 9.16129 10.4113 8.99468 10.363ZM15.071 10.3262C14.8716 10.398 14.6567 10.4371 14.4327 10.4371C14.348 10.4371 14.2647 10.4316 14.183 10.4207L13.4616 11.4681C13.4549 11.4608 13.4482 11.4535 13.4414 11.4463C13.6757 11.6958 13.844 12.0079 13.9186 12.3549C13.9169 12.3467 13.9151 12.3385 13.9132 12.3302L14.9129 12.3254C15.008 11.8866 15.2557 11.5046 15.5978 11.2382L15.071 10.3262ZM12.5995 8.99031H11.3528C11.2651 9.35822 11.0698 9.68431 10.8018 9.93334L11.4181 10.9455L11.4099 10.9483C11.6082 10.8789 11.8214 10.8412 12.0434 10.8412C12.297 10.8412 12.539 10.8904 12.7606 10.9798C12.754 10.9772 12.7474 10.9745 12.7407 10.972L13.3464 10.0926C12.9781 9.83216 12.7072 9.44287 12.5995 8.99031Z"
      fill="white" style="fill:white;fill-opacity:1;" />
  </g>
  <defs>
    <clipPath id="clip0_1996_28741">
      <rect y="0.753906" width="24" height="24" rx="4" fill="white" style="fill:white;fill-opacity:1;" />
    </clipPath>
  </defs>
</svg>
